# xmcd
#
# Track frame offsets: 
#        150
#        9791
#        23910
#        37574
#        51557
#        64907
#        78464
#        91567
#        106379
#        120124
#        133421
#        146976
#        161780
#        173791
#        186588
#        200154
#        214140
#        227841
#        240354
#        254091
#        267746
#        281227
#        294460
#        308721
#        322364
#        335472
#
# Disc length: 4656 seconds
#
# Revision: 0
# Processed by: cddbd v1.5.2PL0 Copyright (c) Steve Scherf et al.
# Submitted via: ExactAudioCopy v1.0b4
#
DISCID=91122e1a
DTITLE=Various Artist - Country. Old time folk songs and music CD1
DYEAR=2014
DGENRE=
TTITLE0=Riley Puckett - The preacher and the bear
TTITLE1=Doc Walsh - In the pines
TTITLE2=Frank Hutchinson - Stacklee
TTITLE3=Ernest V. Stoneman - The fate of Talmadge Osborne
TTITLE4=Dock Boggs - Sugar baby (red rocking chair)
TTITLE5=J.P. Nestor - Train on the island
TTITLE6=Aiken County String Band - High sheriff
TTITLE7=Dick Burnett and Leonard Rutherford - Willie Moore
TTITLE8=Buell Kazee - The butcher's boy (the railroad boy)
TTITLE9=Fiddlin' Bob Larkin and His Music Makers - Higher up the monkey 
TTITLE9=climbs
TTITLE10=Bascom Lamar Lunsford - Dry bones
TTITLE11=Jilson Setters - The wild wagoner
TTITLE12=Dr. Humphrey Bate and His Possum Hunters - Ham beats all meat
TTITLE13=Crook Brothers String Band - My wife died friday night
TTITLE14=The Carolina Tar Hells - Peg and Awl
TTITLE15=Bill and Belle Reed - The old lady and the devil
TTITLE16=Uncle Eck Dunford - Old shoes and leggins
TTITLE17=Jimmie Rodgers - Any old time
TTITLE18=Blue Ridge Mountaineers - Old Flannigan
TTITLE19=E.E. Hack String Band - Western Kentucky limited
TTITLE20=Charlie Poole and North Carolina Ramblers - He rambled
TTITLE21=Prince Albert Hunt's Texas Ramblers - Wake up Jacob
TTITLE22=G.B. Grayson and Henry Whitter - Tom Dooley
TTITLE23=Vernon Dalhart - The farm relief song
TTITLE24=Eck Robertson and Family - Brilliancy medley
TTITLE25=Wade Ward and The Buck Mountain Band - Don't let the blues let 
TTITLE25=you down
EXTD=
EXTT0=
EXTT1=
EXTT2=
EXTT3=
EXTT4=
EXTT5=
EXTT6=
EXTT7=
EXTT8=
EXTT9=
EXTT10=
EXTT11=
EXTT12=
EXTT13=
EXTT14=
EXTT15=
EXTT16=
EXTT17=
EXTT18=
EXTT19=
EXTT20=
EXTT21=
EXTT22=
EXTT23=
EXTT24=
EXTT25=
PLAYORDER=
